<?xml version="1.0" standalone="no"?>
<!DOCTYPE svg PUBLIC "-//W3C//DTD SVG 20010904//EN"
 "http://www.w3.org/TR/2001/REC-SVG-20010904/DTD/svg10.dtd">
<svg version="1.0" xmlns="http://www.w3.org/2000/svg"
 width="500.000000pt" height="500.000000pt" viewBox="0 0 500.000000 500.000000"
 preserveAspectRatio="xMidYMid meet">

<g transform="translate(0.000000,500.000000) scale(0.100000,-0.100000)"
fill="#000000" stroke="none">
<path d="M1460 4245 l0 -145 40 0 39 0 3 58 3 57 43 3 c37 3 42 6 42 27 0 21
-5 24 -42 27 -37 3 -44 7 -46 27 -5 32 12 41 81 41 54 0 57 1 57 25 l0 25
-110 0 -110 0 0 -145z"/>
<path d="M1720 4245 l0 -146 113 3 112 3 3 27 c3 27 3 27 -70 30 -71 3 -73 4
-76 31 -3 26 -2 27 42 27 44 0 46 1 46 30 0 29 -2 30 -45 30 -41 0 -45 2 -45
24 0 29 16 36 86 36 51 0 54 1 54 25 l0 25 -110 0 -110 0 0 -145z"/>
<path d="M1990 4245 l0 -146 113 3 112 3 3 27 c3 27 3 27 -70 30 -71 3 -73 4
-76 31 -3 26 -2 27 42 27 44 0 46 1 46 30 0 29 -2 30 -45 30 -41 0 -45 2 -45
24 0 29 16 36 86 36 51 0 54 1 54 25 l0 25 -110 0 -110 0 0 -145z"/>
<path d="M2260 4245 l0 -145 105 0 105 0 0 30 0 30 -65 0 -65 0 0 115 0 115
-40 0 -40 0 0 -145z"/>
<path d="M2592 4248 l3 -143 108 -3 107 -3 0 31 0 30 -65 0 -65 0 0 115 0 115
-45 0 -46 0 3 -142z"/>
<path d="M2850 4244 l0 -145 43 3 42 3 3 143 3 142 -46 0 -45 0 0 -146z"/>
<path d="M2982 4248 l3 -143 40 0 c40 0 40 0 43 41 2 26 11 49 23 60 23 20 20
23 52 -48 25 -57 27 -58 66 -58 23 0 41 5 41 10 0 6 -18 46 -40 90 -22 44 -40
86 -40 93 0 8 14 31 30 52 17 21 30 39 30 41 0 2 -17 4 -37 4 -35 0 -41 -5
-78 -58 l-40 -57 -3 58 -3 57 -45 0 -45 0 3 -142z"/>
<path d="M3290 4245 l0 -145 115 0 115 0 0 30 0 30 -70 0 -70 0 0 30 c0 28 2
30 40 30 38 0 40 2 40 30 0 28 -2 30 -41 30 -38 0 -40 1 -37 28 3 26 6 27 63
30 57 3 75 12 75 40 0 9 -30 12 -115 12 l-115 0 0 -145z"/>
<path d="M2152 3951 c-20 -33 -50 -63 -89 -87 -329 -212 -378 -256 -398 -366
-5 -25 -23 -51 -62 -89 -30 -30 -53 -47 -50 -39 35 92 40 128 33 235 -8 136
-16 195 -27 195 -5 0 -9 -13 -9 -29 0 -92 -33 -210 -102 -364 -63 -142 -71
-167 -72 -226 -2 -53 -7 -73 -26 -99 -13 -17 -24 -32 -24 -32 -1 0 0 89 2 197
3 219 0 224 -47 78 -46 -142 -62 -262 -60 -443 1 -175 -14 -252 -23 -116 -7
92 -37 173 -96 261 -43 63 -81 102 -69 71 3 -9 11 -66 17 -125 30 -293 39
-334 93 -424 32 -53 34 -62 40 -180 11 -212 47 -367 127 -535 205 -436 582
-718 1059 -789 202 -31 473 -5 649 62 76 29 36 25 -60 -5 -140 -45 -225 -57
-403 -56 -227 1 -389 37 -590 134 -366 176 -639 520 -736 928 -23 97 -41 312
-32 397 l6 60 127 125 c70 69 142 144 158 168 42 59 64 129 60 194 l-3 53 -29
-50 c-16 -27 -69 -90 -117 -140 -47 -49 -105 -117 -128 -149 -22 -33 -41 -52
-41 -44 0 27 56 190 90 261 35 75 38 77 189 136 54 21 125 56 157 79 62 41
174 146 174 161 0 9 -44 -2 -126 -32 -89 -33 -209 -102 -266 -155 -40 -37 -35
-21 15 46 132 179 137 182 422 192 139 5 216 13 252 24 52 16 173 98 173 116
0 14 -1 13 -51 -14 -40 -22 -60 -24 -230 -30 -102 -4 -212 -11 -244 -16 -33
-5 -60 -8 -63 -6 -7 8 128 98 212 140 211 108 385 149 626 149 190 1 284 -14
442 -69 321 -112 579 -325 747 -619 220 -385 238 -883 46 -1267 -20 -39 -33
-73 -30 -76 9 -9 93 182 120 273 46 159 58 262 51 445 -8 238 -43 376 -148
581 -134 261 -342 470 -598 599 -116 58 -217 95 -330 121 -114 27 -358 36
-482 19 -202 -27 -417 -109 -588 -224 -79 -52 -82 -54 -41 -16 24 22 83 64
130 92 182 109 251 180 291 297 11 35 19 65 17 67 -2 2 -18 -18 -35 -45z m-18
-73 c-43 -84 -108 -141 -268 -239 -49 -30 -112 -74 -139 -99 -43 -38 -49 -41
-42 -20 27 89 107 160 341 303 50 31 97 63 104 72 20 24 22 17 4 -17z m-558
-358 c-6 -88 -37 -165 -103 -257 -83 -117 -86 -119 -81 -53 4 40 22 92 68 190
34 74 69 164 77 200 8 36 17 76 21 90 9 40 24 -94 18 -170z m640 -35 c-11 -8
-45 -25 -75 -36 -47 -18 -88 -23 -261 -29 -118 -4 -218 -12 -235 -19 l-29 -12
19 22 c22 24 75 52 120 64 17 4 120 11 230 15 110 4 211 7 225 8 24 1 24 1 6
-13z m-899 -267 c-4 -124 -10 -171 -32 -248 -15 -52 -33 -106 -41 -120 -12
-23 -13 -15 -14 73 0 109 12 203 41 319 22 90 36 128 45 128 4 0 4 -69 1 -152z
m453 80 c-91 -83 -149 -119 -268 -167 -67 -27 -122 -45 -122 -41 0 21 151 135
239 180 58 29 162 69 181 69 8 0 -5 -18 -30 -41z m-672 -288 c70 -107 92 -191
91 -348 -1 -148 -7 -159 -48 -83 -39 73 -56 152 -71 331 -7 74 -14 138 -17
143 -2 4 0 7 4 7 5 0 23 -22 41 -50z m432 -28 c-23 -93 -70 -155 -223 -294
-82 -75 -90 -80 -83 -53 17 72 62 140 160 243 56 59 112 122 126 141 29 41 36
27 20 -37z m-213 26 c-3 -8 -6 -5 -6 6 -1 11 2 17 5 13 3 -3 4 -12 1 -19z"/>
<path d="M2126 3288 c-48 -45 -606 -740 -606 -756 0 -10 4 -22 8 -28 11 -17
51 -36 62 -29 7 4 10 -109 10 -319 l0 -326 -38 0 c-64 0 -93 -49 -52 -90 20
-20 33 -20 975 -20 942 0 955 0 975 20 11 11 20 26 20 33 0 22 -31 57 -51 57
-18 0 -19 10 -19 360 0 295 2 360 13 360 24 0 51 40 51 73 0 25 -31 78 -135
229 l-134 198 -380 0 -380 1 -85 105 c-47 59 -98 117 -113 130 -37 31 -87 32
-121 2z m88 -4 c28 -11 618 -743 614 -762 -2 -9 -13 -18 -25 -20 -17 -3 -76
64 -313 355 -161 197 -295 359 -300 361 -4 1 -139 -160 -301 -358 -228 -279
-298 -360 -314 -358 -49 7 -26 43 250 383 152 187 292 355 310 373 35 32 50
37 79 26z m260 -447 l276 -339 0 -335 0 -334 -22 3 -23 3 -3 248 -2 247 -185
0 -185 0 -2 -247 -3 -248 -350 0 -350 0 -3 325 c-2 322 -2 325 20 355 72 98
541 665 548 663 5 -2 133 -155 284 -341z m914 -649 l2 -358 -305 0 -305 0 0
318 0 318 30 11 c16 6 32 18 35 27 3 9 7 23 10 31 4 13 40 15 267 13 l263 -3
3 -357z m-708 -123 l0 -235 -165 0 -165 0 0 235 0 235 165 0 165 0 0 -235z"/>
<path d="M2040 2805 l0 -146 148 3 147 3 0 140 0 140 -147 3 -148 3 0 -146z
m270 0 l0 -125 -125 0 -125 0 0 118 c0 65 3 122 7 125 3 4 60 7 125 7 l118 0
0 -125z"/>
<path d="M2095 2878 c-3 -13 -5 -55 -3 -93 l3 -70 93 -3 93 -3 -3 93 -3 93
-87 3 c-84 3 -88 2 -93 -20z"/>
<path d="M1714 2337 c-2 -7 -3 -87 -2 -177 l3 -165 263 -3 262 -2 0 180 0 180
-260 0 c-203 0 -262 -3 -266 -13z m246 -137 l0 -121 -112 3 -113 3 -3 118 -3
117 116 0 115 0 0 -120z m260 0 l0 -120 -115 0 -115 0 0 120 0 120 115 0 115
0 0 -120z"/>
<path d="M2820 2170 l0 -180 263 2 262 3 0 175 0 175 -262 3 -263 2 0 -180z
m250 30 l0 -120 -115 0 -115 0 0 120 0 120 115 0 115 0 0 -120z m250 0 l0
-120 -115 0 -115 0 0 120 0 120 115 0 115 0 0 -120z"/>
<path d="M2394 2039 c-10 -17 13 -36 27 -22 12 12 4 33 -11 33 -5 0 -12 -5
-16 -11z"/>
<path d="M3676 1654 c-8 -21 1 -34 24 -34 10 0 21 4 24 9 10 16 -5 41 -24 41
-10 0 -21 -7 -24 -16z"/>
<path d="M3524 1469 c-3 -6 1 -18 9 -27 13 -12 19 -13 31 -3 8 7 12 19 9 27
-6 17 -39 19 -49 3z"/>
<path d="M3350 1314 c-11 -12 -11 -18 1 -30 13 -12 18 -12 34 0 16 12 17 16 6
30 -17 20 -25 20 -41 0z"/>
<path d="M3144 1185 c-4 -9 -2 -21 4 -27 15 -15 44 -1 40 19 -4 23 -36 29 -44
8z"/>
<path d="M1152 748 l2 -153 3 148 4 147 39 0 39 0 3 -52 3 -53 40 0 40 0 3 53
3 52 39 0 39 0 4 -147 3 -148 2 153 2 152 -50 0 -50 0 0 -55 0 -55 -35 0 -35
0 0 55 0 55 -50 0 -50 0 2 -152z"/>
<path d="M1833 880 c-36 -21 -64 -67 -62 -102 1 -19 2 -18 8 7 15 63 38 87
100 106 21 6 22 7 6 8 -11 1 -34 -8 -52 -19z"/>
<path d="M1928 893 c6 -2 18 -2 25 0 6 3 1 5 -13 5 -14 0 -19 -2 -12 -5z"/>
<path d="M2402 788 l2 -113 3 108 4 107 39 0 39 0 4 -102 3 -103 2 108 2 107
-50 0 -50 0 2 -112z"/>
<path d="M2582 793 l2 -108 3 102 4 102 37 4 37 4 -42 1 -43 2 2 -107z"/>
<path d="M3098 893 c7 -3 16 -2 19 1 4 3 -2 6 -13 5 -11 0 -14 -3 -6 -6z"/>
<path d="M3168 893 c6 -2 18 -2 25 0 6 3 1 5 -13 5 -14 0 -19 -2 -12 -5z"/>
<path d="M3730 893 c75 -3 117 -8 123 -16 6 -9 7 -8 4 3 -3 12 -26 15 -123 16
l-119 0 115 -3z"/>
<path d="M1990 873 c14 -9 31 -24 38 -33 11 -13 11 -13 6 2 -3 9 -16 24 -29
32 -33 22 -46 20 -15 -1z"/>
<path d="M3044 868 l-19 -23 25 20 c14 11 27 21 29 22 2 2 0 3 -6 3 -5 0 -18
-10 -29 -22z"/>
<path d="M3238 869 c10 -13 8 -19 -6 -31 -9 -9 -24 -18 -32 -21 -13 -5 -13 -5
0 -6 8 0 26 9 39 20 24 19 24 20 6 37 -15 13 -16 14 -7 1z"/>
<path d="M1880 825 c-19 -22 -8 -25 13 -3 9 10 13 18 8 18 -5 0 -14 -7 -21
-15z"/>
<path d="M1933 829 c9 -5 17 -18 18 -27 0 -11 2 -12 6 -4 6 15 -14 42 -31 42
-6 0 -3 -5 7 -11z"/>
<path d="M3104 829 c-10 -16 16 -36 56 -43 35 -5 35 -5 -4 8 -53 17 -57 34 -9
39 l38 4 -37 1 c-20 1 -40 -3 -44 -9z"/>
<path d="M3712 805 c0 -16 2 -22 5 -12 2 9 2 23 0 30 -3 6 -5 -1 -5 -18z"/>
<path d="M2048 772 c2 -28 -1 -65 -7 -84 -9 -25 -9 -30 0 -21 16 16 24 116 11
138 -7 13 -8 3 -4 -33z"/>
<path d="M1863 745 c0 -27 2 -38 4 -22 2 15 2 37 0 50 -2 12 -4 0 -4 -28z"/>
<path d="M3020 783 c0 -22 45 -62 75 -68 28 -5 28 -4 -5 8 -19 8 -42 27 -52
43 -10 16 -18 24 -18 17z"/>
<path d="M3220 765 c14 -7 30 -26 37 -42 8 -19 12 -22 13 -10 0 21 -43 67 -62
67 -7 -1 -2 -7 12 -15z"/>
<path d="M1770 714 c0 -10 5 -26 10 -34 8 -11 9 -7 4 15 -8 37 -14 45 -14 19z"/>
<path d="M3753 723 c-40 -4 -43 -6 -43 -34 l0 -29 69 0 c68 0 70 -1 74 -27 4
-26 4 -26 3 2 -1 30 -1 30 -68 33 -60 3 -68 5 -68 22 0 17 7 20 40 20 22 0 40
5 40 10 0 6 -1 9 -2 8 -2 -1 -22 -3 -45 -5z"/>
<path d="M1242 658 l2 -63 3 58 4 57 34 0 34 0 4 -57 3 -58 2 63 2 62 -45 0
-45 0 2 -62z"/>
<path d="M1942 682 c-11 -25 -11 -25 4 -10 9 9 15 21 13 27 -2 6 -10 -2 -17
-17z"/>
<path d="M3138 703 c7 -3 16 -2 19 1 4 3 -2 6 -13 5 -11 0 -14 -3 -6 -6z"/>
<path d="M3077 679 c12 -12 24 -21 27 -18 2 2 -8 13 -22 23 l-27 19 22 -24z"/>
<path d="M1870 681 c0 -10 19 -25 25 -20 1 2 -3 10 -11 17 -8 7 -14 8 -14 3z"/>
<path d="M2651 674 c0 -11 3 -14 6 -6 3 7 2 16 -1 19 -3 4 -6 -2 -5 -13z"/>
<path d="M3026 675 c-11 -8 -15 -15 -9 -15 6 0 16 7 23 15 16 19 11 19 -14 0z"/>
<path d="M3259 671 c-7 -42 -52 -66 -124 -66 -52 0 -70 5 -97 25 -23 16 -28
18 -18 5 20 -25 72 -45 115 -45 68 0 141 48 133 87 -4 14 -5 13 -9 -6z"/>
<path d="M2507 669 c7 -7 15 -10 18 -7 3 3 -2 9 -12 12 -14 6 -15 5 -6 -5z"/>
<path d="M2560 670 c-9 -6 -10 -10 -3 -10 6 0 15 5 18 10 8 12 4 12 -15 0z"/>
<path d="M2410 662 c0 -17 45 -62 62 -62 7 1 2 7 -11 14 -13 7 -30 24 -37 37
-7 13 -13 18 -14 11z"/>
<path d="M1810 635 c13 -14 26 -25 28 -25 3 0 -5 11 -18 25 -13 14 -26 25 -28
25 -3 0 5 -11 18 -25z"/>
<path d="M1991 624 c-19 -13 -29 -24 -23 -24 6 0 24 11 39 25 35 31 28 31 -16
-1z"/>
<path d="M2624 628 l-19 -23 23 19 c21 18 27 26 19 26 -2 0 -12 -10 -23 -22z"/>
<path d="M1893 593 c9 -2 25 -2 35 0 9 3 1 5 -18 5 -19 0 -27 -2 -17 -5z"/>
<path d="M2508 593 c12 -2 32 -2 45 0 12 2 2 4 -23 4 -25 0 -35 -2 -22 -4z"/>
</g>
</svg>
